<svg width="200" height="72" viewBox="0 0 200 72" fill="none" xmlns="http://www.w3.org/2000/svg">
<g clip-path="url(#clip0)">
<mask id="mask0" mask-type="alpha" maskUnits="userSpaceOnUse" x="4" y="4" width="191" height="64">
<path d="M87.968 42.624C87.968 45.696 88.0533 48.4907 88.224 51.008C88.3947 53.4827 88.6507 55.9147 88.992 58.304C87.8827 58.688 86.6667 58.9653 85.344 59.136C84.064 59.3067 82.528 59.392 80.736 59.392C80.1813 55.7227 79.776 52.096 79.52 48.512C79.3067 44.928 79.2 41.0453 79.2 36.864C79.2 32.128 79.3493 27.008 79.648 21.504C79.9893 15.9573 80.416 11.6267 80.928 8.512C82.4213 8.46933 84.256 8.61867 86.432 8.96C88.6507 9.25866 90.272 9.64266 91.296 10.112C90.6133 13.184 89.9947 16.9813 89.44 21.504C88.8853 25.984 88.48 30.3573 88.224 34.624C90.144 32.7893 92.0427 30.72 93.92 28.416C95.7973 26.112 98.1227 22.9973 100.896 19.072C102.091 19.6693 103.285 20.5013 104.48 21.568C105.675 22.6347 106.613 23.7013 107.296 24.768C105.461 27.1573 103.477 29.4187 101.344 31.552C99.2107 33.6427 96.6507 35.84 93.664 38.144C95.4133 40.2347 97.4187 42.24 99.68 44.16C101.984 46.0373 104.864 48.1067 108.32 50.368C106.827 52.2453 105.525 53.632 104.416 54.528C103.307 55.424 102.155 56.064 100.96 56.448C98.5707 54.4427 96.352 52.3307 94.304 50.112C92.256 47.8507 90.1867 45.2053 88.096 42.176L87.968 42.24C87.968 42.2827 87.968 42.3467 87.968 42.432C87.968 42.4747 87.968 42.5387 87.968 42.624ZM122.178 8C123.202 8.04266 124.141 8.14933 124.994 8.32C125.847 8.49066 126.551 8.72533 127.106 9.024C126.722 9.92 126.295 11.136 125.826 12.672C125.357 14.208 124.994 15.6587 124.738 17.024C123.543 17.1947 122.285 17.3227 120.962 17.408C119.639 17.4507 118.21 17.4507 116.674 17.408C116.461 16.7253 116.29 16.0427 116.162 15.36C116.077 14.6773 116.034 13.9947 116.034 13.312C116.034 12.544 116.098 11.7973 116.226 11.072C116.354 10.3467 116.525 9.70666 116.738 9.152C117.549 8.768 118.381 8.49066 119.234 8.32C120.13 8.10666 121.111 8 122.178 8ZM114.882 23.936C115.778 23.424 116.781 23.04 117.89 22.784C119.042 22.4853 120.258 22.336 121.538 22.336C122.135 22.336 122.733 22.3787 123.33 22.464C123.97 22.5067 124.589 22.592 125.186 22.72C124.29 26.1333 123.565 30.8693 123.01 36.928C122.455 42.9867 122.178 49.2373 122.178 55.68C121.495 55.9787 120.642 56.2133 119.618 56.384C118.637 56.5973 117.613 56.704 116.546 56.704C116.077 56.704 115.65 56.6827 115.266 56.64C114.925 56.5973 114.605 56.5547 114.306 56.512C113.623 50.6667 113.325 44.9067 113.41 39.232C113.538 33.5573 114.029 28.4587 114.882 23.936ZM165.394 56.96C164.583 57.2587 163.474 57.536 162.066 57.792C160.658 58.048 159.335 58.2187 158.098 58.304C157.415 54.08 156.711 50.2187 155.986 46.72C155.303 43.1787 154.514 39.68 153.618 36.224C152.253 40.3627 151.037 43.8187 149.97 46.592C148.903 49.3653 147.751 52.0747 146.514 54.72C145.533 55.0187 144.253 55.296 142.674 55.552C141.138 55.7653 139.73 55.8933 138.45 55.936C136.445 50.688 134.759 45.3973 133.394 40.064C132.071 34.688 130.962 28.8853 130.066 22.656C131.73 22.144 133.415 21.7387 135.122 21.44C136.871 21.1413 138.663 20.9707 140.498 20.928C140.882 26.304 141.351 30.976 141.906 34.944C142.503 38.912 143.271 42.7947 144.21 46.592C145.533 42.9227 146.685 39.36 147.666 35.904C148.647 32.4053 149.501 28.7573 150.226 24.96C151.975 24.5333 153.597 24.2347 155.09 24.064C156.583 23.8507 157.885 23.7653 158.994 23.808C160.018 26.88 160.935 30.2933 161.746 34.048C162.599 37.8027 163.41 42.0053 164.178 46.656C165.501 42.6027 166.589 38.6773 167.442 34.88C168.295 31.04 168.935 27.2 169.362 23.36C171.026 23.488 172.477 23.7227 173.714 24.064C174.951 24.4053 176.189 24.9387 177.426 25.664C175.677 32.3627 173.842 38.1867 171.922 43.136C170.045 48.0427 167.869 52.6507 165.394 56.96ZM189.988 8C191.012 8.04266 191.951 8.14933 192.804 8.32C193.657 8.49066 194.361 8.72533 194.916 9.024C194.532 9.92 194.105 11.136 193.636 12.672C193.167 14.208 192.804 15.6587 192.548 17.024C191.353 17.1947 190.095 17.3227 188.772 17.408C187.449 17.4507 186.02 17.4507 184.484 17.408C184.271 16.7253 184.1 16.0427 183.972 15.36C183.887 14.6773 183.844 13.9947 183.844 13.312C183.844 12.544 183.908 11.7973 184.036 11.072C184.164 10.3467 184.335 9.70666 184.548 9.152C185.359 8.768 186.191 8.49066 187.044 8.32C187.94 8.10666 188.921 8 189.988 8ZM182.692 23.936C183.588 23.424 184.591 23.04 185.7 22.784C186.852 22.4853 188.068 22.336 189.348 22.336C189.945 22.336 190.543 22.3787 191.14 22.464C191.78 22.5067 192.399 22.592 192.996 22.72C192.1 26.1333 191.375 30.8693 190.82 36.928C190.265 42.9867 189.988 49.2373 189.988 55.68C189.305 55.9787 188.452 56.2133 187.428 56.384C186.447 56.5973 185.423 56.704 184.356 56.704C183.887 56.704 183.46 56.6827 183.076 56.64C182.735 56.5973 182.415 56.5547 182.116 56.512C181.433 50.6667 181.135 44.9067 181.22 39.232C181.348 33.5573 181.839 28.4587 182.692 23.936Z" fill="black"/>
<path fill-rule="evenodd" clip-rule="evenodd" d="M36 4C27.5131 4 19.3738 7.37141 13.3726 13.3726C7.37142 19.3737 4 27.5131 4 36C4 44.4869 7.37142 52.6262 13.3726 58.6274C19.3737 64.6286 27.5131 68 36 68L36 42.4L36 36L36 4ZM36 42.4C34.3026 42.4 32.6747 41.7257 31.4745 40.5255C30.2743 39.3252 29.6 37.6974 29.6 36C29.6 34.3026 30.2743 32.6747 31.4745 31.4745C32.6748 30.2743 34.3026 29.6 36 29.6L36 36L36 42.4ZM15.1208 32.75C16.532 32.75 20.4623 34.8451 21.8402 35.6044C21.9387 35.6587 21.9999 35.7623 22 35.8748L22 35.875C22 35.9875 21.939 36.0912 21.8405 36.1455C20.4628 36.9046 16.5321 39 15.1207 39C13.3972 39 12 37.6009 12 35.875C12 34.1491 13.3972 32.75 15.1208 32.75ZM29.1545 48.2727C29.1568 48.1603 29.0975 48.0556 29 47.9994L28.9999 47.9993C28.9023 47.943 28.782 47.9442 28.6858 48.0024C27.3393 48.8161 23.5597 51.1723 22.854 52.3945C21.9923 53.8871 22.5053 55.7967 24 56.6596C25.4947 57.5226 27.4049 57.0121 28.2667 55.5195C28.9724 54.2972 29.1231 49.8454 29.1545 48.2727ZM29 23.7507C28.9025 23.8069 28.7822 23.8059 28.686 23.7478C27.3397 22.9342 23.5597 20.5778 22.854 19.3555C21.9923 17.8629 22.5053 15.9533 24 15.0904C25.4947 14.2274 27.4049 14.7379 28.2667 16.2305C28.9723 17.4527 29.123 21.904 29.1545 23.477C29.1567 23.5894 29.0976 23.6942 29.0001 23.7506L29 23.7507Z" fill="black"/>
<path fill-rule="evenodd" clip-rule="evenodd" d="M36 6.13333C19.5051 6.13333 6.13334 19.5051 6.13333 36C6.13333 52.4949 19.5051 65.8667 36 65.8667C52.4949 65.8667 65.8667 52.4949 65.8667 36C65.8667 19.5051 52.4949 6.13333 36 6.13333ZM36 4C18.3269 3.99999 4 18.3269 4 36C4 53.6731 18.3269 68 36 68C53.6731 68 68 53.6731 68 36C68 18.3269 53.6731 4 36 4Z" fill="black"/>
<path d="M36 44.5333C38.2632 44.5333 40.4337 43.6343 42.034 42.034C43.6343 40.4337 44.5333 38.2632 44.5333 36C44.5333 33.7368 43.6343 31.5663 42.034 29.966C40.4337 28.3657 38.2632 27.4667 36 27.4667L36 36L36 44.5333Z" fill="black"/>
<path d="M50.1595 35.6045C50.061 35.6587 50 35.7625 50 35.875C50 35.875 50 35.8751 50 35.8752C50.0001 35.9877 50.0613 36.0913 50.1598 36.1456C51.5377 36.9049 55.468 39 56.8793 39C58.6028 39 60 37.6009 60 35.875C60 34.1491 58.6028 32.75 56.8793 32.75C55.4679 32.75 51.5372 34.8454 50.1595 35.6045Z" fill="black"/>
<path d="M42.8454 23.4773C42.8432 23.5897 42.9025 23.6944 43 23.7506C43 23.7507 43.0001 23.7507 43.0001 23.7507C43.0976 23.807 43.218 23.8057 43.3142 23.7476C44.6607 22.9339 48.4403 20.5777 49.1459 19.3555C50.0077 17.8629 49.4946 15.9533 48 15.0904C46.5053 14.2274 44.595 14.7379 43.7333 16.2305C43.0276 17.4528 42.8769 21.9046 42.8454 23.4773Z" fill="black"/>
<path d="M43.314 48.0022C43.2178 47.9441 43.0975 47.9431 43 47.9994C43 47.9994 42.9999 47.9994 42.9999 47.9994C42.9024 48.0558 42.8433 48.1606 42.8455 48.273C42.877 49.846 43.0277 54.2973 43.7333 55.5195C44.5951 57.0121 46.5054 57.5226 48 56.6596C49.4947 55.7967 50.0078 53.8871 49.146 52.3945C48.4403 51.1722 44.6603 48.8158 43.314 48.0022Z" fill="black"/>
</mask>
<g mask="url(#mask0)">
<rect x="4" y="4" width="192" height="64" fill="url(#paint0_linear)"/>
</g>
</g>
<defs>
<linearGradient id="paint0_linear" x1="4" y1="11.4667" x2="51.8801" y2="123.027" gradientUnits="userSpaceOnUse">
<stop stop-color="#1C8F51"/>
<stop offset="1" stop-color="#1A6F6F"/>
</linearGradient>
<clipPath id="clip0">
<rect width="200" height="72" fill="white"/>
</clipPath>
</defs>
</svg>
