<svg width="718" height="118" viewBox="0 0 718 118" fill="none" xmlns="http://www.w3.org/2000/svg">
<mask id="mask0" mask-type="alpha" maskUnits="userSpaceOnUse" x="20" y="0" width="678" height="118">
<path d="M393.207 107.172V30.4141C393.207 29.3594 393.539 28.5 394.203 27.8359C394.906 27.1328 395.766 26.7812 396.781 26.7812H408.09C409.105 26.7812 409.945 27.1328 410.609 27.8359C411.312 28.5 411.664 29.3594 411.664 30.4141V32.1719C417.836 27.7969 425.004 25.6094 433.168 25.6094C441.332 25.6094 448.148 28.5 453.617 34.2812C459.086 40.0234 461.82 48.2656 461.82 59.0078C461.82 69.7109 458.988 77.9141 453.324 83.6172C447.66 89.3203 440.023 92.1719 430.414 92.1719C425.453 92.1719 419.809 91.1758 413.48 89.1836V107.172C413.48 108.227 413.129 109.086 412.426 109.75C411.762 110.453 410.922 110.805 409.906 110.805H396.781C395.766 110.805 394.906 110.453 394.203 109.75C393.539 109.086 393.207 108.227 393.207 107.172ZM413.48 75.6484C418.52 77.25 422.758 78.0508 426.195 78.0508C431.547 78.0508 435.336 76.5273 437.562 73.4805C439.828 70.4336 440.961 65.5703 440.961 58.8906C440.961 52.2109 439.887 47.3672 437.738 44.3594C435.629 41.3125 432.445 39.7891 428.188 39.7891C423.969 39.7891 419.066 41.5469 413.48 45.0625V75.6484ZM476.762 86.7812C471.605 83.1875 469.027 78.1094 469.027 71.5469C469.027 64.9844 471.605 59.9453 476.762 56.4297C481.957 52.9141 488.637 51.1562 496.801 51.1562H516.195C516.195 46.5859 515.238 43.4023 513.324 41.6055C511.41 39.8086 508.051 38.9102 503.246 38.9102C498.48 38.9102 495.121 40.1016 493.168 42.4844C491.254 44.8281 488.891 46 486.078 46H477.348C476.293 46 475.414 45.668 474.711 45.0039C474.047 44.3008 473.715 43.4414 473.715 42.4258C473.715 31.2148 484.359 25.6094 505.648 25.6094C514.945 25.6094 522.406 27.6992 528.031 31.8789C533.656 36.0195 536.469 42.4453 536.469 51.1562V87.4258C536.469 88.4805 536.137 89.3398 535.473 90.0039C534.809 90.668 533.949 91 532.895 91H521.586C520.531 91 519.672 90.668 519.008 90.0039C518.344 89.3008 518.012 88.4414 518.012 87.4258V85.6094C511.84 90.0234 504.711 92.2109 496.625 92.1719C488.578 92.1719 481.957 90.375 476.762 86.7812ZM498.207 64.457C495.473 64.457 493.305 65.1211 491.703 66.4492C490.141 67.7773 489.359 69.4961 489.359 71.6055C489.359 73.7148 490.18 75.4531 491.82 76.8203C493.461 78.1875 495.785 78.8711 498.793 78.8711C504.809 78.8711 510.609 77.1133 516.195 73.5977V64.457H498.207ZM576.957 86.0781C568.09 86.0781 560.922 83.4023 555.453 78.0508C550.023 72.6992 547.309 65.2773 547.309 55.7852C547.309 46.293 550.414 38.8906 556.625 33.5781C562.836 28.2656 571.742 25.6094 583.344 25.6094C589.008 25.6094 594.887 26.2539 600.98 27.543C607.074 28.793 611.664 30.3359 614.75 32.1719V86.4297C614.75 95.1406 611.879 101.566 606.137 105.707C600.395 109.887 592.328 111.977 581.938 111.977C571.586 111.977 563.598 110.668 557.973 108.051C552.387 105.473 549.594 101.195 549.594 95.2188C549.594 94.1641 549.926 93.2852 550.59 92.582C551.293 91.918 552.172 91.5859 553.227 91.5859H561.957C564.77 91.5859 567.016 92.6211 568.695 94.6914C570.844 97.3477 574.652 98.6758 580.121 98.6758C585.629 98.6758 589.398 97.7773 591.43 95.9805C593.461 94.1836 594.477 91 594.477 86.4297V83.6758C588.227 85.2773 582.387 86.0781 576.957 86.0781ZM582.113 39.7891C572.855 39.75 568.227 45.1016 568.227 55.8438C568.227 66.5469 572.738 71.8984 581.762 71.8984C585.512 71.8984 589.75 71.3125 594.477 70.1406V41.0781C591.117 40.1797 586.996 39.75 582.113 39.7891ZM634.613 83.6172C628.598 77.9141 625.59 69.7109 625.59 59.0078C625.59 48.2656 628.617 40.0234 634.672 34.2812C640.727 28.5 649.125 25.6094 659.867 25.6094C670.609 25.6094 678.988 28.4219 685.004 34.0469C691.02 39.6328 694.027 47.6602 694.027 58.1289V61.4688C694.027 62.5234 693.676 63.4023 692.973 64.1055C692.309 64.7695 691.449 65.1016 690.395 65.1016H646.273C646.664 69.9062 648.031 73.4023 650.375 75.5898C652.758 77.7773 656.547 78.8711 661.742 78.8711C666.938 78.8711 670.492 77.6992 672.406 75.3555C674.32 73.0117 676.684 71.8203 679.496 71.7812H688.227C689.281 71.7812 690.141 72.1328 690.805 72.8359C691.508 73.5 691.859 74.3594 691.859 75.4141C691.859 86.625 681.176 92.2109 659.809 92.1719C649.027 92.1719 640.629 89.3203 634.613 83.6172ZM646.156 52.7383H673.402C673.012 43.5195 668.48 38.9102 659.809 38.9102C651.176 38.9102 646.625 43.5195 646.156 52.7383Z" fill="url(#paint0_linear)"/>
<path d="M32.8398 83.6172C26.8242 77.9141 23.8164 69.7109 23.8164 59.0078C23.8164 48.2656 26.8438 40.0234 32.8984 34.2812C38.9531 28.5 47.3516 25.6094 58.0938 25.6094C68.8359 25.6094 77.2148 28.4219 83.2305 34.0469C89.2461 39.6328 92.2539 47.6602 92.2539 58.1289V61.4688C92.2539 62.5234 91.9023 63.4023 91.1992 64.1055C90.5352 64.7695 89.6758 65.1016 88.6211 65.1016H44.5C44.8906 69.9062 46.2578 73.4023 48.6016 75.5898C50.9844 77.7773 54.7734 78.8711 59.9688 78.8711C65.1641 78.8711 68.7188 77.6992 70.6328 75.3555C72.5469 73.0117 74.9102 71.8203 77.7227 71.7812H86.4531C87.5078 71.7812 88.3672 72.1328 89.0312 72.8359C89.7344 73.5 90.0859 74.3594 90.0859 75.4141C90.0859 86.625 79.4023 92.2109 58.0352 92.1719C47.2539 92.1719 38.8555 89.3203 32.8398 83.6172ZM44.3828 52.7383H71.6289C71.2383 43.5195 66.707 38.9102 58.0352 38.9102C49.4023 38.9102 44.8516 43.5195 44.3828 52.7383ZM98.875 26.7812H110.125C111.805 26.7812 113.387 27.2695 114.871 28.2461C116.355 29.1836 117.41 30.4141 118.035 31.9375L134.031 68.4414L149.969 31.9375C150.594 30.4141 151.648 29.1836 153.133 28.2461C154.617 27.2695 156.199 26.7812 157.879 26.7812H169.188C170.555 26.7812 171.453 27.2891 171.883 28.3047C172.078 28.6953 172.156 29.2031 172.117 29.8281C172.117 30.4141 171.941 31.1172 171.59 31.9375L146.277 85.8438C145.574 87.3672 144.461 88.6172 142.938 89.5938C141.453 90.5312 139.91 91 138.309 91H129.695C128.094 91 126.551 90.5312 125.066 89.5938C123.582 88.6172 122.488 87.3672 121.785 85.8438L96.4727 31.9375C96.082 31.0781 95.8867 30.3555 95.8867 29.7695C95.8867 27.7773 96.8828 26.7812 98.875 26.7812ZM184.832 83.6172C178.816 77.9141 175.809 69.7109 175.809 59.0078C175.809 48.2656 178.836 40.0234 184.891 34.2812C190.945 28.5 199.344 25.6094 210.086 25.6094C220.828 25.6094 229.207 28.4219 235.223 34.0469C241.238 39.6328 244.246 47.6602 244.246 58.1289V61.4688C244.246 62.5234 243.895 63.4023 243.191 64.1055C242.527 64.7695 241.668 65.1016 240.613 65.1016H196.492C196.883 69.9062 198.25 73.4023 200.594 75.5898C202.977 77.7773 206.766 78.8711 211.961 78.8711C217.156 78.8711 220.711 77.6992 222.625 75.3555C224.539 73.0117 226.902 71.8203 229.715 71.7812H238.445C239.5 71.7812 240.359 72.1328 241.023 72.8359C241.727 73.5 242.078 74.3594 242.078 75.4141C242.078 86.625 231.395 92.2109 210.027 92.1719C199.246 92.1719 190.848 89.3203 184.832 83.6172ZM196.375 52.7383H223.621C223.23 43.5195 218.699 38.9102 210.027 38.9102C201.395 38.9102 196.844 43.5195 196.375 52.7383ZM299.441 41.6641L290.418 41.3125C285.145 41.3125 280.105 44.2031 275.301 49.9844V87.4258C275.301 88.4805 274.949 89.3398 274.246 90.0039C273.582 90.668 272.742 91 271.727 91H258.602C257.547 91 256.688 90.668 256.023 90.0039C255.359 89.3398 255.027 88.4805 255.027 87.4258V30.4141C255.027 29.3594 255.359 28.5 256.023 27.8359C256.727 27.1328 257.586 26.7812 258.602 26.7812H271.727C272.781 26.7812 273.641 27.1328 274.305 27.8359C274.969 28.5 275.301 29.3594 275.301 30.4141V34.1055C279.285 31.2148 283.113 29.0859 286.785 27.7188C290.496 26.3125 295.34 25.6094 301.316 25.6094C302.371 25.6094 303.23 25.9609 303.895 26.6641C304.598 27.3281 304.949 28.168 304.949 29.1836V38.0898C304.949 39.1445 304.598 40.0039 303.895 40.668C303.23 41.332 302.371 41.6641 301.316 41.6641H299.441ZM325.867 97.0938L333.543 98.0898C339.051 98.0898 342.898 94.0469 345.086 85.9609C338.445 85.9609 332.898 83.9688 328.445 79.9844C323.992 75.9609 320.164 68.832 316.961 58.5977L308.23 30.2969C308.113 29.9844 308.055 29.6328 308.055 29.2422C308.055 28.8125 308.289 28.3047 308.758 27.7188C309.266 27.1328 310.008 26.8203 310.984 26.7812H323.23C324.363 26.7812 325.438 27.1719 326.453 27.9531C327.508 28.6953 328.191 29.6328 328.504 30.7656L336.18 55.6094C338.094 61.7031 340.027 65.9219 341.98 68.2656C343.973 70.6094 346.316 71.7812 349.012 71.7812L360.672 30.7656C360.984 29.6328 361.59 28.6953 362.488 27.9531C363.426 27.1719 364.461 26.7812 365.594 26.7812H377.957C378.934 26.7812 379.656 27.0937 380.125 27.7188C380.594 28.3438 380.828 28.8711 380.828 29.3008C380.828 29.6914 380.789 30.0234 380.711 30.2969L365.359 85.0234C362.625 94.7109 359.227 101.625 355.164 105.766C351.141 109.906 345.945 111.977 339.578 111.977C333.211 111.977 328.699 111.742 326.043 111.273C323.426 110.805 321.785 110.219 321.121 109.516C320.457 108.852 320.125 108.07 320.125 107.172V100.727C320.125 99.6719 320.457 98.793 321.121 98.0898C321.785 97.4258 322.645 97.0938 323.699 97.0938H325.867Z" fill="#333333"/>
</mask>
<g mask="url(#mask0)">
<rect width="718" height="118" fill="white"/>
</g>
<defs>
<linearGradient id="paint0_linear" x1="386" y1="15.8667" x2="630.083" y2="179.711" gradientUnits="userSpaceOnUse">
<stop stop-color="#134E5E"/>
<stop offset="1" stop-color="#3E9A53"/>
</linearGradient>
</defs>
</svg>
